<mxfile host="app.diagrams.net" modified="2023-12-06T04:02:30.189Z" agent="Mozilla/5.0 (Windows NT 10.0; Win64; x64) AppleWebKit/537.36 (KHTML, like Gecko) Chrome/119.0.0.0 Safari/537.36" etag="d0mYiS0Qu2LE0zabhcF-" version="22.1.5" type="github">
  <diagram id="--nqma7Hxtt_wLqLNTel" name="Page-1">
    <mxGraphModel dx="1115" dy="608" grid="1" gridSize="10" guides="1" tooltips="1" connect="1" arrows="1" fold="1" page="1" pageScale="1" pageWidth="827" pageHeight="1169" math="0" shadow="0">
      <root>
        <mxCell id="0" />
        <mxCell id="1" parent="0" />
        <mxCell id="2p3ya99PdbGUZq53EWPI-1" value="" style="rounded=0;whiteSpace=wrap;html=1;" parent="1" vertex="1">
          <mxGeometry x="50" y="130" width="190" height="430" as="geometry" />
        </mxCell>
        <mxCell id="2p3ya99PdbGUZq53EWPI-2" value="" style="rounded=1;whiteSpace=wrap;html=1;" parent="1" vertex="1">
          <mxGeometry x="70" y="410" width="140" height="120" as="geometry" />
        </mxCell>
        <mxCell id="2p3ya99PdbGUZq53EWPI-3" value="User App" style="text;html=1;strokeColor=none;fillColor=none;align=center;verticalAlign=middle;whiteSpace=wrap;rounded=0;fontStyle=4" parent="1" vertex="1">
          <mxGeometry x="71.5" y="508.25" width="140" height="20" as="geometry" />
        </mxCell>
        <mxCell id="2p3ya99PdbGUZq53EWPI-14" value="Onprem VM" style="text;html=1;strokeColor=none;fillColor=none;align=center;verticalAlign=middle;whiteSpace=wrap;rounded=0;fontStyle=1" parent="1" vertex="1">
          <mxGeometry x="50" y="131.25" width="80" height="20" as="geometry" />
        </mxCell>
        <mxCell id="2p3ya99PdbGUZq53EWPI-17" value="" style="rounded=0;whiteSpace=wrap;html=1;" parent="1" vertex="1">
          <mxGeometry x="280" y="130" width="400" height="170" as="geometry" />
        </mxCell>
        <mxCell id="2p3ya99PdbGUZq53EWPI-18" value="AWS" style="text;html=1;strokeColor=none;fillColor=none;align=center;verticalAlign=middle;whiteSpace=wrap;rounded=0;fontStyle=1" parent="1" vertex="1">
          <mxGeometry x="580" y="130" width="40" height="20" as="geometry" />
        </mxCell>
        <mxCell id="2p3ya99PdbGUZq53EWPI-19" value="" style="rounded=1;whiteSpace=wrap;html=1;" parent="1" vertex="1">
          <mxGeometry x="70" y="160" width="140" height="210" as="geometry" />
        </mxCell>
        <mxCell id="2p3ya99PdbGUZq53EWPI-23" value="Vault" style="text;html=1;strokeColor=none;fillColor=none;align=center;verticalAlign=middle;whiteSpace=wrap;rounded=0;fontStyle=4" parent="1" vertex="1">
          <mxGeometry x="70" y="160" width="141" height="15" as="geometry" />
        </mxCell>
        <mxCell id="2p3ya99PdbGUZq53EWPI-33" value="" style="rounded=0;whiteSpace=wrap;html=1;" parent="1" vertex="1">
          <mxGeometry x="280" y="380" width="400" height="180" as="geometry" />
        </mxCell>
        <mxCell id="2p3ya99PdbGUZq53EWPI-34" value="AWS" style="text;html=1;strokeColor=none;fillColor=none;align=center;verticalAlign=middle;whiteSpace=wrap;rounded=0;fontStyle=1" parent="1" vertex="1">
          <mxGeometry x="580" y="540" width="40" height="20" as="geometry" />
        </mxCell>
        <mxCell id="2p3ya99PdbGUZq53EWPI-42" value="Account A" style="text;html=1;strokeColor=none;fillColor=none;align=center;verticalAlign=middle;whiteSpace=wrap;rounded=0;" parent="1" vertex="1">
          <mxGeometry x="620" y="130" width="60" height="20" as="geometry" />
        </mxCell>
        <mxCell id="2p3ya99PdbGUZq53EWPI-97" value="#2 Login as &lt;br&gt;UserA" style="text;html=1;strokeColor=none;fillColor=none;align=center;verticalAlign=middle;whiteSpace=wrap;rounded=0;" parent="1" vertex="1">
          <mxGeometry x="208" y="160" width="100" height="33.75" as="geometry" />
        </mxCell>
        <mxCell id="2p3ya99PdbGUZq53EWPI-104" value="&lt;font style=&quot;font-size: 16px;&quot;&gt;Federated Credential Flow with Hashi-Corp Vault&lt;br&gt;&lt;/font&gt;" style="text;html=1;strokeColor=none;fillColor=none;align=center;verticalAlign=middle;whiteSpace=wrap;rounded=0;fontStyle=1;strokeWidth=1;" parent="1" vertex="1">
          <mxGeometry x="204.5" y="570" width="405.5" height="30" as="geometry" />
        </mxCell>
        <mxCell id="XSkRe8p8Ryk4nutkjoMU-8" value="" style="rounded=1;whiteSpace=wrap;html=1;" parent="1" vertex="1">
          <mxGeometry x="414" y="420" width="176" height="123.5" as="geometry" />
        </mxCell>
        <mxCell id="XSkRe8p8Ryk4nutkjoMU-9" value="IAM" style="text;html=1;strokeColor=none;fillColor=none;align=center;verticalAlign=middle;whiteSpace=wrap;rounded=0;fontStyle=4" parent="1" vertex="1">
          <mxGeometry x="414" y="422.75" width="56" height="15" as="geometry" />
        </mxCell>
        <mxCell id="XSkRe8p8Ryk4nutkjoMU-55" style="edgeStyle=orthogonalEdgeStyle;rounded=0;orthogonalLoop=1;jettySize=auto;html=1;entryX=0;entryY=0.5;entryDx=0;entryDy=0;entryPerimeter=0;startArrow=classic;startFill=1;endArrow=classic;endFill=1;" parent="1" target="XSkRe8p8Ryk4nutkjoMU-3" edge="1">
          <mxGeometry relative="1" as="geometry">
            <mxPoint x="460" y="200" as="sourcePoint" />
          </mxGeometry>
        </mxCell>
        <mxCell id="XSkRe8p8Ryk4nutkjoMU-10" value="" style="rounded=1;whiteSpace=wrap;html=1;" parent="1" vertex="1">
          <mxGeometry x="310" y="151.25" width="150" height="128.75" as="geometry" />
        </mxCell>
        <mxCell id="XSkRe8p8Ryk4nutkjoMU-11" value="Cognito User Pools" style="text;html=1;strokeColor=none;fillColor=none;align=center;verticalAlign=middle;whiteSpace=wrap;rounded=0;fontStyle=4" parent="1" vertex="1">
          <mxGeometry x="324.5" y="158.75" width="121" height="15" as="geometry" />
        </mxCell>
        <mxCell id="XSkRe8p8Ryk4nutkjoMU-12" value="Account B" style="text;html=1;strokeColor=none;fillColor=none;align=center;verticalAlign=middle;whiteSpace=wrap;rounded=0;" parent="1" vertex="1">
          <mxGeometry x="620" y="540" width="60" height="20" as="geometry" />
        </mxCell>
        <mxCell id="XSkRe8p8Ryk4nutkjoMU-3" value="" style="shape=cylinder3;whiteSpace=wrap;html=1;boundedLbl=1;backgroundOutline=1;size=8.5;" parent="1" vertex="1">
          <mxGeometry x="574.5" y="170" width="85.5" height="60" as="geometry" />
        </mxCell>
        <mxCell id="XSkRe8p8Ryk4nutkjoMU-16" value="Permissions" style="text;html=1;strokeColor=none;fillColor=none;align=center;verticalAlign=middle;whiteSpace=wrap;rounded=0;" parent="1" vertex="1">
          <mxGeometry x="424.25" y="480" width="76.5" height="30" as="geometry" />
        </mxCell>
        <mxCell id="XSkRe8p8Ryk4nutkjoMU-22" value="" style="group" parent="1" vertex="1" connectable="0">
          <mxGeometry x="500.75" y="472.75" width="56.5" height="61.5" as="geometry" />
        </mxCell>
        <mxCell id="XSkRe8p8Ryk4nutkjoMU-15" value="" style="rounded=0;whiteSpace=wrap;html=1;" parent="XSkRe8p8Ryk4nutkjoMU-22" vertex="1">
          <mxGeometry width="56.5" height="61.5" as="geometry" />
        </mxCell>
        <mxCell id="XSkRe8p8Ryk4nutkjoMU-17" value="" style="shape=umlDestroy;whiteSpace=wrap;html=1;strokeWidth=3;fillColor=#e51400;strokeColor=#B20000;fontColor=#ffffff;" parent="XSkRe8p8Ryk4nutkjoMU-22" vertex="1">
          <mxGeometry x="7.5" y="41" width="7.38" height="9" as="geometry" />
        </mxCell>
        <mxCell id="XSkRe8p8Ryk4nutkjoMU-19" value="" style="verticalLabelPosition=bottom;verticalAlign=top;html=1;shape=mxgraph.basic.tick;fillColor=#00CC00;strokeColor=#82b366;" parent="XSkRe8p8Ryk4nutkjoMU-22" vertex="1">
          <mxGeometry x="6.5" y="10.5" width="9.75" height="10" as="geometry" />
        </mxCell>
        <mxCell id="XSkRe8p8Ryk4nutkjoMU-21" value="" style="verticalLabelPosition=bottom;verticalAlign=top;html=1;shape=mxgraph.basic.tick;fillColor=#00CC00;strokeColor=#82b366;" parent="XSkRe8p8Ryk4nutkjoMU-22" vertex="1">
          <mxGeometry x="6.5" y="24.5" width="9.75" height="10" as="geometry" />
        </mxCell>
        <mxCell id="XSkRe8p8Ryk4nutkjoMU-33" value="" style="outlineConnect=0;dashed=0;verticalLabelPosition=bottom;verticalAlign=top;align=center;html=1;shape=mxgraph.aws3.bucket;fillColor=#fad7ac;strokeColor=#b46504;" parent="1" vertex="1">
          <mxGeometry x="317.01" y="484.25" width="50" height="51.5" as="geometry" />
        </mxCell>
        <mxCell id="XSkRe8p8Ryk4nutkjoMU-34" value="" style="outlineConnect=0;dashed=0;verticalLabelPosition=bottom;verticalAlign=top;align=center;html=1;shape=mxgraph.aws3.bucket;fillColor=#b1ddf0;strokeColor=#10739e;" parent="1" vertex="1">
          <mxGeometry x="317.99" y="412.75" width="50" height="51.5" as="geometry" />
        </mxCell>
        <mxCell id="XSkRe8p8Ryk4nutkjoMU-35" value="AWS S3&lt;br&gt;(Bucket B)" style="text;html=1;strokeColor=none;fillColor=none;align=center;verticalAlign=middle;whiteSpace=wrap;rounded=0;" parent="1" vertex="1">
          <mxGeometry x="301.02" y="500.75" width="85.99" height="35" as="geometry" />
        </mxCell>
        <mxCell id="XSkRe8p8Ryk4nutkjoMU-14" value="AWS S3&lt;br&gt;(Bucket A)" style="text;html=1;strokeColor=none;fillColor=none;align=center;verticalAlign=middle;whiteSpace=wrap;rounded=0;" parent="1" vertex="1">
          <mxGeometry x="301" y="428.5" width="85.99" height="35" as="geometry" />
        </mxCell>
        <mxCell id="XSkRe8p8Ryk4nutkjoMU-51" value="#4 Get Token&lt;br&gt;(JWT)" style="text;html=1;strokeColor=none;fillColor=none;align=center;verticalAlign=middle;whiteSpace=wrap;rounded=0;" parent="1" vertex="1">
          <mxGeometry x="217.5" y="211.25" width="85.5" height="28.75" as="geometry" />
        </mxCell>
        <mxCell id="XSkRe8p8Ryk4nutkjoMU-53" value="#1 Token &lt;br&gt;Req" style="text;html=1;strokeColor=none;fillColor=none;align=center;verticalAlign=middle;whiteSpace=wrap;rounded=0;" parent="1" vertex="1">
          <mxGeometry x="50" y="375" width="63.5" height="30" as="geometry" />
        </mxCell>
        <mxCell id="XSkRe8p8Ryk4nutkjoMU-54" value="Internal DB of users" style="text;html=1;strokeColor=none;fillColor=none;align=center;verticalAlign=middle;whiteSpace=wrap;rounded=0;" parent="1" vertex="1">
          <mxGeometry x="584.5" y="193.75" width="70" height="30" as="geometry" />
        </mxCell>
        <mxCell id="XSkRe8p8Ryk4nutkjoMU-57" value="#6&amp;nbsp; Validate JWT" style="text;html=1;strokeColor=none;fillColor=none;align=center;verticalAlign=middle;whiteSpace=wrap;rounded=0;" parent="1" vertex="1">
          <mxGeometry x="474.5" y="265" width="100" height="20" as="geometry" />
        </mxCell>
        <mxCell id="XSkRe8p8Ryk4nutkjoMU-58" value="#5 GetFederationToken Req with LongTerm ID/Key and JWT" style="text;html=1;strokeColor=none;fillColor=none;align=left;verticalAlign=middle;whiteSpace=wrap;rounded=0;" parent="1" vertex="1">
          <mxGeometry x="275.5" y="310" width="344.5" height="20" as="geometry" />
        </mxCell>
        <mxCell id="XSkRe8p8Ryk4nutkjoMU-59" value="#3&amp;nbsp; User Authentication" style="text;html=1;strokeColor=none;fillColor=none;align=center;verticalAlign=middle;whiteSpace=wrap;rounded=0;" parent="1" vertex="1">
          <mxGeometry x="469.5" y="185" width="95.5" height="30" as="geometry" />
        </mxCell>
        <mxCell id="XSkRe8p8Ryk4nutkjoMU-63" value="#7 Credential Resp" style="text;html=1;strokeColor=none;fillColor=none;align=center;verticalAlign=middle;whiteSpace=wrap;rounded=0;" parent="1" vertex="1">
          <mxGeometry x="275.5" y="340" width="105.5" height="20" as="geometry" />
        </mxCell>
        <mxCell id="XSkRe8p8Ryk4nutkjoMU-64" value="#8 Token &lt;br&gt;Resp" style="text;html=1;strokeColor=none;fillColor=none;align=center;verticalAlign=middle;whiteSpace=wrap;rounded=0;" parent="1" vertex="1">
          <mxGeometry x="165.25" y="377" width="75" height="26" as="geometry" />
        </mxCell>
        <mxCell id="XSkRe8p8Ryk4nutkjoMU-66" value="" style="group" parent="1" vertex="1" connectable="0">
          <mxGeometry x="150" y="200" width="50" height="20" as="geometry" />
        </mxCell>
        <mxCell id="XSkRe8p8Ryk4nutkjoMU-67" value="" style="rounded=0;whiteSpace=wrap;html=1;" parent="XSkRe8p8Ryk4nutkjoMU-66" vertex="1">
          <mxGeometry width="50" height="20" as="geometry" />
        </mxCell>
        <mxCell id="XSkRe8p8Ryk4nutkjoMU-68" value="JWT" style="text;html=1;strokeColor=none;fillColor=none;align=center;verticalAlign=middle;whiteSpace=wrap;rounded=0;" parent="XSkRe8p8Ryk4nutkjoMU-66" vertex="1">
          <mxGeometry width="50" height="20" as="geometry" />
        </mxCell>
        <mxCell id="XSkRe8p8Ryk4nutkjoMU-83" value="" style="endArrow=classic;html=1;rounded=0;exitX=1.008;exitY=0.086;exitDx=0;exitDy=0;exitPerimeter=0;" parent="1" edge="1">
          <mxGeometry width="50" height="50" relative="1" as="geometry">
            <mxPoint x="210" y="194.08000000000004" as="sourcePoint" />
            <mxPoint x="310" y="194" as="targetPoint" />
          </mxGeometry>
        </mxCell>
        <mxCell id="XSkRe8p8Ryk4nutkjoMU-89" value="#9 Access AWS Resource" style="text;html=1;strokeColor=none;fillColor=none;align=center;verticalAlign=middle;whiteSpace=wrap;rounded=0;" parent="1" vertex="1">
          <mxGeometry x="211" y="414.25" width="95.5" height="34.25" as="geometry" />
        </mxCell>
        <mxCell id="5kJvitd1m-C3UW1Qc7YP-1" value="- Role A (Authenticated)" style="text;html=1;strokeColor=none;fillColor=none;align=center;verticalAlign=middle;whiteSpace=wrap;rounded=0;" parent="1" vertex="1">
          <mxGeometry x="419.5" y="448.5" width="145.5" height="20" as="geometry" />
        </mxCell>
        <mxCell id="XSkRe8p8Ryk4nutkjoMU-5" value="" style="rounded=1;whiteSpace=wrap;html=1;" parent="1" vertex="1">
          <mxGeometry x="544.5" y="398.5" width="90" height="51.5" as="geometry" />
        </mxCell>
        <mxCell id="XSkRe8p8Ryk4nutkjoMU-7" value="AWS STS" style="text;html=1;strokeColor=none;fillColor=none;align=center;verticalAlign=middle;whiteSpace=wrap;rounded=0;fontStyle=4" parent="1" vertex="1">
          <mxGeometry x="557.25" y="405" width="60" height="15" as="geometry" />
        </mxCell>
        <mxCell id="5kJvitd1m-C3UW1Qc7YP-2" value="(Authorization Endpoint)" style="text;html=1;align=center;verticalAlign=middle;whiteSpace=wrap;rounded=0;fillColor=none;" parent="1" vertex="1">
          <mxGeometry x="317.01" y="170" width="140" height="23.75" as="geometry" />
        </mxCell>
        <mxCell id="5kJvitd1m-C3UW1Qc7YP-3" value="(Token Endpoint)" style="text;html=1;align=center;verticalAlign=middle;whiteSpace=wrap;rounded=0;fillColor=none;" parent="1" vertex="1">
          <mxGeometry x="80" y="170" width="120.5" height="23.75" as="geometry" />
        </mxCell>
        <mxCell id="eF7RnkACJvAT3XS9qkA6-6" value="" style="endArrow=classic;html=1;rounded=0;exitX=0;exitY=0.75;exitDx=0;exitDy=0;" parent="1" edge="1">
          <mxGeometry width="50" height="50" relative="1" as="geometry">
            <mxPoint x="310" y="208.8125" as="sourcePoint" />
            <mxPoint x="210" y="209" as="targetPoint" />
          </mxGeometry>
        </mxCell>
        <mxCell id="eF7RnkACJvAT3XS9qkA6-8" value="" style="endArrow=classic;html=1;rounded=0;entryX=0.5;entryY=0;entryDx=0;entryDy=0;exitX=1.004;exitY=0.811;exitDx=0;exitDy=0;exitPerimeter=0;" parent="1" target="XSkRe8p8Ryk4nutkjoMU-5" edge="1" source="2p3ya99PdbGUZq53EWPI-19">
          <mxGeometry width="50" height="50" relative="1" as="geometry">
            <mxPoint x="210" y="260" as="sourcePoint" />
            <mxPoint x="310" y="280" as="targetPoint" />
            <Array as="points">
              <mxPoint x="590" y="330" />
            </Array>
          </mxGeometry>
        </mxCell>
        <mxCell id="eF7RnkACJvAT3XS9qkA6-9" value="" style="endArrow=classic;html=1;rounded=0;exitX=0.391;exitY=-0.029;exitDx=0;exitDy=0;exitPerimeter=0;" parent="1" source="XSkRe8p8Ryk4nutkjoMU-5" edge="1">
          <mxGeometry width="50" height="50" relative="1" as="geometry">
            <mxPoint x="580" y="390" as="sourcePoint" />
            <mxPoint x="210" y="340" as="targetPoint" />
            <Array as="points">
              <mxPoint x="580" y="340" />
            </Array>
          </mxGeometry>
        </mxCell>
        <mxCell id="XSkRe8p8Ryk4nutkjoMU-28" style="edgeStyle=orthogonalEdgeStyle;rounded=0;orthogonalLoop=1;jettySize=auto;html=1;startArrow=none;startFill=0;exitX=1;exitY=0.5;exitDx=0;exitDy=0;" parent="1" source="XSkRe8p8Ryk4nutkjoMU-5" target="XSkRe8p8Ryk4nutkjoMU-10" edge="1">
          <mxGeometry relative="1" as="geometry">
            <Array as="points">
              <mxPoint x="670" y="424" />
              <mxPoint x="670" y="260" />
            </Array>
            <mxPoint x="760" y="200" as="targetPoint" />
          </mxGeometry>
        </mxCell>
        <mxCell id="eF7RnkACJvAT3XS9qkA6-13" value="LongTerm ID/Key" style="text;html=1;strokeColor=#b85450;fillColor=#f8cecc;align=center;verticalAlign=middle;whiteSpace=wrap;rounded=0;" parent="1" vertex="1">
          <mxGeometry x="103.25" y="290" width="96.75" height="20" as="geometry" />
        </mxCell>
        <mxCell id="eF7RnkACJvAT3XS9qkA6-15" value="Temp ID/Key/Token" style="text;html=1;strokeColor=#6c8ebf;fillColor=#dae8fc;align=center;verticalAlign=middle;whiteSpace=wrap;rounded=0;" parent="1" vertex="1">
          <mxGeometry x="85.5" y="329" width="114.5" height="20" as="geometry" />
        </mxCell>
        <mxCell id="eF7RnkACJvAT3XS9qkA6-20" value="Temp ID/Key/Token" style="text;html=1;strokeColor=#6c8ebf;fillColor=#dae8fc;align=center;verticalAlign=middle;whiteSpace=wrap;rounded=0;" parent="1" vertex="1">
          <mxGeometry x="86" y="436" width="114.5" height="20" as="geometry" />
        </mxCell>
        <mxCell id="eF7RnkACJvAT3XS9qkA6-21" value="" style="endArrow=classic;html=1;rounded=0;exitX=1.008;exitY=0.086;exitDx=0;exitDy=0;exitPerimeter=0;" parent="1" edge="1">
          <mxGeometry width="50" height="50" relative="1" as="geometry">
            <mxPoint x="210" y="448.58000000000004" as="sourcePoint" />
            <mxPoint x="310" y="448.5" as="targetPoint" />
          </mxGeometry>
        </mxCell>
        <mxCell id="eF7RnkACJvAT3XS9qkA6-22" value="" style="endArrow=classic;html=1;rounded=0;" parent="1" edge="1">
          <mxGeometry width="50" height="50" relative="1" as="geometry">
            <mxPoint x="114.25" y="410" as="sourcePoint" />
            <mxPoint x="114.25" y="370" as="targetPoint" />
          </mxGeometry>
        </mxCell>
        <mxCell id="eF7RnkACJvAT3XS9qkA6-23" value="" style="endArrow=classic;html=1;rounded=0;" parent="1" edge="1">
          <mxGeometry width="50" height="50" relative="1" as="geometry">
            <mxPoint x="171.25" y="371" as="sourcePoint" />
            <mxPoint x="171.25" y="410" as="targetPoint" />
          </mxGeometry>
        </mxCell>
        <mxCell id="eF7RnkACJvAT3XS9qkA6-24" value="&lt;span&gt;#0 Key is already in Vault&amp;nbsp;&lt;/span&gt;" style="text;html=1;strokeColor=none;fillColor=none;align=center;verticalAlign=middle;whiteSpace=wrap;rounded=0;fontStyle=0" parent="1" vertex="1">
          <mxGeometry x="66.5" y="265" width="150" height="30" as="geometry" />
        </mxCell>
        <mxCell id="BGzAOGzC0gM5ytER81OH-4" value="" style="curved=1;endArrow=classic;html=1;rounded=0;entryX=0.75;entryY=0;entryDx=0;entryDy=0;" edge="1" parent="1" target="eF7RnkACJvAT3XS9qkA6-20">
          <mxGeometry width="50" height="50" relative="1" as="geometry">
            <mxPoint x="170" y="410" as="sourcePoint" />
            <mxPoint x="190" y="440" as="targetPoint" />
            <Array as="points">
              <mxPoint x="190" y="420" />
            </Array>
          </mxGeometry>
        </mxCell>
      </root>
    </mxGraphModel>
  </diagram>
</mxfile>
